# xmcd CD database file
#
# Track frame offsets:
#	150
#	12142
#	28020
#	47015
#	59182
#	78882
#	96798
#	113943
#	117813
#	138205
#
# Disc length: 2104 seconds
#
# Revision: 0
# Processed by: cddbd v1.5.2PL0 Copyright (c) Steve Scherf et al.
# Submitted via: CDex 1.70beta2
#
DISCID=7c08360a
DTITLE=Jazz Devils -  Purple Swing
DYEAR=2007
DGENRE=Jazz
TTITLE0=Jazz Devils - Four
TTITLE1=Jazz Devils - Flight of the foo bird
TTITLE2=Jazz Devils - Fever
TTITLE3=Jazz Devils - Jericho
TTITLE4=Jazz Devils - Quiet time
TTITLE5=Jazz Devils - Moten swing
TTITLE6=Jazz Devils - Route 66
TTITLE7=Jazz Devils - Bonne nuit
TTITLE8=Jazz Devils - City
TTITLE9=Jazz Devils - Oh Lori
EXTD=YEAR: 2007
EXTT0=
EXTT1=
EXTT2=
EXTT3=
EXTT4=
EXTT5=
EXTT6=
EXTT7=
EXTT8=
EXTT9=
PLAYORDER=
